<svg width="127" height="126" viewBox="0 0 127 126" fill="none" xmlns="http://www.w3.org/2000/svg">
<mask id="path-1-outside-1_700_785" maskUnits="userSpaceOnUse" x="0" y="0" width="127" height="126" fill="black">
<rect fill="white" width="127" height="126"/>
<path d="M45.8 30.4C45.8 38.2667 47.2 47.0667 50 56.8C76.4 46.4 89.6 34.6667 89.6 21.6C89.6 9.99999 83.9333 4.19999 72.6 4.19999C64.7333 4.19999 58.2667 6.46666 53.2 11C48.2667 15.5333 45.8 22 45.8 30.4ZM119.4 94.2L120.8 94.4C118.267 100.8 116.133 105.8 114.4 109.4C112.8 112.867 110.467 116.267 107.4 119.6C104.333 122.8 101 124.4 97.4 124.4C87.2667 124.4 77.6 118.933 68.4 108C61.0667 113.467 54.2667 117.667 48 120.6C41.8667 123.533 35.0667 125 27.6 125C19.6 125 13.2667 122.867 8.6 118.6C3.93333 114.333 1.6 108.333 1.6 100.6C1.6 95.4 2.73333 90.6 5 86.2C7.4 81.6667 10.7333 77.7333 15 74.4C19.4 71.0667 23.8 68.2667 28.2 66C32.6 63.6 37.8667 61.2 44 58.8C41.2 48.9333 39.8 40.8667 39.8 34.6C39.8 25.2667 43.6 17.3333 51.2 10.8C58.8 4.26666 67.0667 0.999997 76 0.999997C82.9333 0.999997 88.1333 2.8 91.6 6.4C95.0667 9.99999 96.8 14.3333 96.8 19.4C96.8 25.6667 94.0667 31.5333 88.6 37C83.1333 42.4667 78.1333 46.3333 73.6 48.6C69.2 50.7333 62.4 53.6 53.2 57.2C52 57.7333 51.0667 58.1333 50.4 58.4C55.6 76.6667 63.1333 91.6 73 103.2C80.7333 96.5333 87.3333 89.2 92.8 81.2C98.2667 73.2 101 67.1333 101 63C101 61.1333 100.533 59.8667 99.6 59.2C98.6667 58.4 96.8 57.9333 94 57.8L78.4 56.6V55.2H125.4V56.6L119.4 57.4C116.2 57.9333 113.733 58.8 112 60C110.4 61.2 108.2 64 105.4 68.4C95.2667 84.2667 84.7333 96.2 73.8 104.2C82.4667 113.8 91.3333 118.6 100.4 118.6C103.733 118.6 106.867 116.733 109.8 113C112.733 109.267 115.933 103 119.4 94.2ZM32.6 120.2C42.4667 120.2 54.1333 115.8 67.6 107C57.8667 94.7333 50.2 79.2 44.6 60.4C31 66.2667 21.6 71.8 16.4 77C11.3333 82.2 8.8 89 8.8 97.4C8.8 104.467 10.9333 110.067 15.2 114.2C19.4667 118.2 25.2667 120.2 32.6 120.2Z"/>
</mask>
<path d="M50 56.8L49.039 57.0764L49.3431 58.1336L50.3665 57.7304L50 56.8ZM53.2 11L52.5331 10.2547L52.5234 10.2637L53.2 11ZM119.4 94.2L119.541 93.2101L118.759 93.0983L118.47 93.8335L119.4 94.2ZM120.8 94.4L121.73 94.7681L122.196 93.5893L120.941 93.41L120.8 94.4ZM114.4 109.4L113.499 108.966L113.495 108.974L113.492 108.981L114.4 109.4ZM107.4 119.6L108.122 120.292L108.129 120.285L108.136 120.277L107.4 119.6ZM68.4 108L69.1652 107.356L68.5582 106.635L67.8023 107.198L68.4 108ZM48 120.6L47.576 119.694L47.5686 119.698L48 120.6ZM8.6 118.6L9.27477 117.862L8.6 118.6ZM5 86.2L4.11616 85.7321L4.11103 85.742L5 86.2ZM15 74.4L14.3961 73.6029L14.3902 73.6074L14.3844 73.612L15 74.4ZM28.2 66L28.658 66.889L28.6685 66.8836L28.6789 66.8779L28.2 66ZM44 58.8L44.3644 59.7312L45.2099 59.4004L44.962 58.527L44 58.8ZM51.2 10.8L50.5481 10.0417L51.2 10.8ZM91.6 6.4L90.8797 7.09364L91.6 6.4ZM88.6 37L89.3071 37.7071L88.6 37ZM73.6 48.6L74.0363 49.4999L74.0472 49.4944L73.6 48.6ZM53.2 57.2L52.8356 56.2688L52.8145 56.277L52.7939 56.2862L53.2 57.2ZM50.4 58.4L50.0286 57.4715L49.1913 57.8064L49.4382 58.6738L50.4 58.4ZM73 103.2L72.2383 103.848L72.8905 104.615L73.6529 103.957L73 103.2ZM92.8 81.2L93.6256 81.7642L92.8 81.2ZM99.6 59.2L98.9492 59.9593L98.9828 59.988L99.0188 60.0137L99.6 59.2ZM94 57.8L93.9233 58.7971L93.9379 58.7982L93.9524 58.7989L94 57.8ZM78.4 56.6H77.4V57.526L78.3233 57.597L78.4 56.6ZM78.4 55.2V54.2H77.4V55.2H78.4ZM125.4 55.2H126.4V54.2H125.4V55.2ZM125.4 56.6L125.532 57.5912L126.4 57.4755V56.6H125.4ZM119.4 57.4L119.268 56.4088L119.252 56.4109L119.236 56.4136L119.4 57.4ZM112 60L111.431 59.1778L111.415 59.1886L111.4 59.2L112 60ZM105.4 68.4L106.243 68.9382L106.244 68.9369L105.4 68.4ZM73.8 104.2L73.2095 103.393L72.315 104.047L73.0577 104.87L73.8 104.2ZM109.8 113L109.014 112.382H109.014L109.8 113ZM67.6 107L68.147 107.837L69.0649 107.237L68.3834 106.378L67.6 107ZM44.6 60.4L45.5584 60.1145L45.2371 59.0361L44.2039 59.4818L44.6 60.4ZM16.4 77L15.6928 76.2928L15.6838 76.3021L16.4 77ZM15.2 114.2L14.5042 114.918L14.5101 114.924L14.5161 114.93L15.2 114.2ZM45.8 30.4H44.8C44.8 38.3825 46.2201 47.2776 49.039 57.0764L50 56.8L50.961 56.5235C48.1799 46.8557 46.8 38.1508 46.8 30.4H45.8ZM50 56.8L50.3665 57.7304C63.6177 52.5102 73.6397 46.9249 80.3644 40.9474C87.0992 34.9609 90.6 28.5096 90.6 21.6H89.6H88.6C88.6 27.7571 85.5008 33.7058 79.0356 39.4526C72.5603 45.2084 62.7823 50.6898 49.6335 55.8696L50 56.8ZM89.6 21.6H90.6C90.6 15.6516 89.1472 11.0056 86.0653 7.85116C82.9792 4.69245 78.4268 3.19999 72.6 3.19999V4.19999V5.19999C78.1066 5.19999 82.0541 6.60754 84.6347 9.24883C87.2195 11.8944 88.6 15.9484 88.6 21.6H89.6ZM72.6 4.19999V3.19999C64.5284 3.19999 57.8117 5.53186 52.5332 10.2548L53.2 11L53.8668 11.7452C58.7216 7.40147 64.9382 5.19999 72.6 5.19999V4.19999ZM53.2 11L52.5234 10.2637C47.334 15.0323 44.8 21.7961 44.8 30.4H45.8H46.8C46.8 22.2039 49.1994 16.0344 53.8766 11.7363L53.2 11ZM119.4 94.2L119.259 95.1899L120.659 95.39L120.8 94.4L120.941 93.41L119.541 93.2101L119.4 94.2ZM120.8 94.4L119.87 94.032C117.34 100.423 115.217 105.398 113.499 108.966L114.4 109.4L115.301 109.834C117.05 106.202 119.193 101.177 121.73 94.7681L120.8 94.4ZM114.4 109.4L113.492 108.981C111.943 112.337 109.673 115.652 106.664 118.923L107.4 119.6L108.136 120.277C111.26 116.881 113.657 113.396 115.308 109.819L114.4 109.4ZM107.4 119.6L106.678 118.908C103.753 121.96 100.667 123.4 97.4 123.4V124.4V125.4C101.333 125.4 104.913 123.64 108.122 120.292L107.4 119.6ZM97.4 124.4V123.4C87.668 123.4 78.2563 118.16 69.1652 107.356L68.4 108L67.6348 108.644C76.9437 119.707 86.8653 125.4 97.4 125.4V124.4ZM68.4 108L67.8023 107.198C60.507 112.637 53.7655 116.797 47.5761 119.694L48 120.6L48.4239 121.506C54.7678 118.536 61.6263 114.297 68.9977 108.802L68.4 108ZM48 120.6L47.5686 119.698C41.5827 122.561 34.9322 124 27.6 124V125V126C35.2011 126 42.1506 124.506 48.4315 121.502L48 120.6ZM27.6 125V124C19.781 124 13.712 121.919 9.27477 117.862L8.6 118.6L7.92523 119.338C12.8213 123.814 19.419 126 27.6 126V125ZM8.6 118.6L9.27477 117.862C4.86042 113.826 2.6 108.12 2.6 100.6H1.6H0.6C0.6 108.547 3.00624 114.841 7.92523 119.338L8.6 118.6ZM1.6 100.6H2.6C2.6 95.551 3.69898 90.9091 5.88898 86.658L5 86.2L4.11103 85.742C1.76769 90.2909 0.6 95.249 0.6 100.6H1.6ZM5 86.2L5.88379 86.6679C8.2143 82.2658 11.4536 78.4396 15.6156 75.188L15 74.4L14.3844 73.612C10.0131 77.0271 6.5857 81.0675 4.11621 85.7321L5 86.2ZM15 74.4L15.6039 75.1971C19.9631 71.8946 24.3146 69.1265 28.658 66.889L28.2 66L27.742 65.111C23.2854 67.4069 18.8369 70.2387 14.3961 73.6029L15 74.4ZM28.2 66L28.6789 66.8779C33.0325 64.5032 38.2589 62.1203 44.3644 59.7312L44 58.8L43.6356 57.8688C37.4744 60.2796 32.1675 62.6968 27.7211 65.1221L28.2 66ZM44 58.8L44.962 58.527C42.1734 48.7004 40.8 40.7346 40.8 34.6H39.8H38.8C38.8 40.9987 40.2266 49.1663 43.038 59.073L44 58.8ZM39.8 34.6H40.8C40.8 25.5816 44.4544 17.9176 51.8519 11.5583L51.2 10.8L50.5481 10.0417C42.7456 16.7491 38.8 24.9517 38.8 34.6H39.8ZM51.2 10.8L51.8519 11.5583C59.2941 5.16061 67.3353 2 76 2V1V0C66.798 0 58.3059 3.37271 50.5481 10.0417L51.2 10.8ZM76 1V2C82.7694 2 87.6651 3.75542 90.8797 7.09364L91.6 6.4L92.3203 5.70636C88.6016 1.84458 83.0973 0 76 0V1ZM91.6 6.4L90.8797 7.09364C94.1642 10.5044 95.8 14.588 95.8 19.4H96.8H97.8C97.8 14.0786 95.9692 9.49554 92.3203 5.70636L91.6 6.4ZM96.8 19.4H95.8C95.8 25.3422 93.2185 30.9673 87.8929 36.2929L88.6 37L89.3071 37.7071C94.9148 32.0994 97.8 25.9911 97.8 19.4H96.8ZM88.6 37L87.8929 36.2929C82.4667 41.7191 77.5535 45.5052 73.1528 47.7056L73.6 48.6L74.0472 49.4944C78.7132 47.1614 83.8 43.2142 89.3071 37.7071L88.6 37ZM73.6 48.6L73.1637 47.7002C68.8005 49.8157 62.0305 52.6708 52.8356 56.2688L53.2 57.2L53.5644 58.1312C62.7695 54.5293 69.5995 51.651 74.0363 49.4998L73.6 48.6ZM53.2 57.2L52.7939 56.2862C51.5976 56.8178 50.6778 57.2119 50.0286 57.4715L50.4 58.4L50.7714 59.3285C51.4556 59.0548 52.4024 58.6488 53.6061 58.1138L53.2 57.2ZM50.4 58.4L49.4382 58.6738C54.668 77.045 62.259 92.1155 72.2383 103.848L73 103.2L73.7617 102.552C64.0077 91.0845 56.532 76.2883 51.3618 58.1262L50.4 58.4ZM73 103.2L73.6529 103.957C81.4485 97.2371 88.1075 89.8396 93.6256 81.7642L92.8 81.2L91.9744 80.6358C86.5592 88.5604 80.0182 95.8295 72.3471 102.443L73 103.2ZM92.8 81.2L93.6256 81.7642C96.3786 77.7355 98.4628 74.1658 99.8617 71.0608C101.255 67.9679 102 65.2687 102 63H101H100C100 64.8646 99.3781 67.2654 98.0383 70.2392C96.7039 73.2008 94.6881 76.6645 91.9744 80.6358L92.8 81.2ZM101 63H102C102 61.015 101.509 59.3343 100.181 58.3863L99.6 59.2L99.0188 60.0137C99.5582 60.399 100 61.2516 100 63H101ZM99.6 59.2L100.251 58.4408C99.6182 57.8985 98.7498 57.5317 97.7425 57.2799C96.7236 57.0251 95.4864 56.8696 94.0476 56.8011L94 57.8L93.9524 58.7989C95.3136 58.8637 96.4097 59.0082 97.2575 59.2201C98.1168 59.435 98.6485 59.7015 98.9492 59.9593L99.6 59.2ZM94 57.8L94.0767 56.8029L78.4767 55.6029L78.4 56.6L78.3233 57.597L93.9233 58.7971L94 57.8ZM78.4 56.6H79.4V55.2H78.4H77.4V56.6H78.4ZM78.4 55.2V56.2H125.4V55.2V54.2H78.4V55.2ZM125.4 55.2H124.4V56.6H125.4H126.4V55.2H125.4ZM125.4 56.6L125.268 55.6088L119.268 56.4088L119.4 57.4L119.532 58.3912L125.532 57.5912L125.4 56.6ZM119.4 57.4L119.236 56.4136C115.961 56.9594 113.333 57.8609 111.431 59.1778L112 60L112.569 60.8222C114.134 59.7391 116.439 58.9073 119.564 58.3864L119.4 57.4ZM112 60L111.4 59.2C109.635 60.5235 107.349 63.4746 104.556 67.8631L105.4 68.4L106.244 68.9369C109.051 64.5254 111.165 61.8765 112.6 60.8L112 60ZM105.4 68.4L104.557 67.8618C94.4665 83.6618 84.0121 95.4886 73.2095 103.393L73.8 104.2L74.3905 105.007C85.4546 96.9114 96.0669 84.8716 106.243 68.9382L105.4 68.4ZM73.8 104.2L73.0577 104.87C81.8312 114.588 90.9467 119.6 100.4 119.6V118.6V117.6C91.7199 117.6 83.1022 113.012 74.5423 103.53L73.8 104.2ZM100.4 118.6V119.6C104.155 119.6 107.548 117.485 110.586 113.618L109.8 113L109.014 112.382C106.186 115.982 103.312 117.6 100.4 117.6V118.6ZM109.8 113L110.586 113.618C113.613 109.765 116.856 103.386 120.33 94.5665L119.4 94.2L118.47 93.8335C115.011 102.614 111.853 108.768 109.014 112.382L109.8 113ZM32.6 120.2V121.2C42.7481 121.2 54.6105 116.683 68.147 107.837L67.6 107L67.053 106.163C53.6561 114.917 42.1852 119.2 32.6 119.2V120.2ZM67.6 107L68.3834 106.378C58.7465 94.2333 51.1309 78.8221 45.5584 60.1145L44.6 60.4L43.6416 60.6855C49.2691 79.5779 56.9868 95.2333 66.8167 107.622L67.6 107ZM44.6 60.4L44.2039 59.4818C30.5814 65.3582 21.0336 70.9522 15.6929 76.2929L16.4 77L17.1071 77.7071C22.1664 72.6478 31.4186 67.1752 44.9961 61.3182L44.6 60.4ZM16.4 77L15.6838 76.3021C10.4065 81.7183 7.8 88.7834 7.8 97.4H8.8H9.8C9.8 89.2166 12.2601 82.6817 17.1162 77.6979L16.4 77ZM8.8 97.4H7.8C7.8 104.682 10.0066 110.561 14.5042 114.918L15.2 114.2L15.8958 113.482C11.86 109.572 9.8 104.251 9.8 97.4H8.8ZM15.2 114.2L14.5161 114.93C19.012 119.144 25.08 121.2 32.6 121.2V120.2V119.2C25.4533 119.2 19.9213 117.256 15.8839 113.47L15.2 114.2Z" fill="#1A1A1A" fill-opacity="0.1" mask="url(#path-1-outside-1_700_785)"/>
</svg>
