<svg width="178" height="179" viewBox="0 0 178 179" fill="none" xmlns="http://www.w3.org/2000/svg">
<mask id="path-1-outside-1_700_788" maskUnits="userSpaceOnUse" x="0" y="0" width="178" height="179" fill="black">
<rect fill="white" width="178" height="179"/>
<path d="M35.4 176.4L35.2 177.6C23.3333 176.533 14.8 174.867 9.6 172.6C4.4 170.333 1.8 167.267 1.8 163.4C1.8 159.533 3.73333 154.6 7.6 148.6C11.4667 142.733 15.6667 137.267 20.2 132.2C24.8667 127 29.1333 121.467 33 115.6C36.8667 109.6 38.8 104.667 38.8 100.8C38.8 96.2667 36.2667 93.2 31.2 91.6C26.2667 89.8667 18 88.9333 6.4 88.8L7 87C22.3333 86.8667 32.9333 84.8 38.8 80.8C44.8 76.6667 47.8 70.6667 47.8 62.8C47.8 58 46 51.3333 42.4 42.8C38.8 34.2667 37 28.4 37 25.2C37 13.7333 50.1333 5.86666 76.4 1.6L76.6 2.6C63.8 5.13333 55.2667 7.93333 51 11C46.8667 14.0667 44.8 18.1333 44.8 23.2C44.8 26.1333 46.3333 31.7333 49.4 40C52.4667 48.1333 54 54.5333 54 59.2C54 75.4667 42.5333 84.8667 19.6 87.4L19.4 88.4C35.9333 89.4667 44.2 93.5333 44.2 100.6C44.2 104.867 42.4 110.067 38.8 116.2C35.3333 122.333 31.4 128 27 133.2C22.7333 138.4 18.8 143.867 15.2 149.6C11.7333 155.333 10 159.933 10 163.4C10 166.867 11.8667 169.533 15.6 171.4C19.3333 173.4 25.9333 175.067 35.4 176.4ZM142.606 2.79999L142.806 1.6C154.673 2.66666 163.206 4.33332 168.406 6.59999C173.606 8.86666 176.206 11.9333 176.206 15.8C176.206 19.6667 174.273 24.4 170.406 30C166.673 35.4667 162.473 40.6 157.806 45.4C153.273 50.2 149.073 55.4 145.206 61C141.473 66.4667 139.606 71.1333 139.606 75C139.606 79.5333 142.073 82.6667 147.006 84.4C152.073 86 160.406 86.8667 172.006 87L171.406 88.8C155.94 88.9333 145.273 91.0667 139.406 95.2C133.54 99.2 130.606 105.133 130.606 113C130.606 117.8 132.34 125.067 135.806 134.8C139.273 144.4 141.006 150.8 141.006 154C141.006 160.133 137.74 165.067 131.206 168.8C124.806 172.533 114.94 175.467 101.606 177.6L101.206 176.6C114.14 174.067 122.673 171.267 126.806 168.2C131.073 165.267 133.206 161.2 133.206 156C133.206 153.067 131.74 146.933 128.806 137.6C125.873 128.267 124.406 121.267 124.406 116.6C124.406 100.333 135.806 90.9333 158.606 88.4L158.806 87.4C142.406 86.2 134.206 82.1333 134.206 75.2C134.206 70.9333 135.94 65.9333 139.406 60.2C143.006 54.3333 146.873 49 151.006 44.2C155.273 39.4 159.14 34.3333 162.606 29C166.206 23.6667 168.006 19.2667 168.006 15.8C168.006 12.3333 166.14 9.66665 162.406 7.79999C158.673 5.79999 152.073 4.13333 142.606 2.79999Z"/>
</mask>
<path d="M35.4 176.4L36.3864 176.564L36.555 175.553L35.5395 175.41L35.4 176.4ZM35.2 177.6L35.1105 178.596L36.034 178.679L36.1864 177.764L35.2 177.6ZM9.6 172.6L9.99959 171.683H9.99959L9.6 172.6ZM7.6 148.6L6.765 148.05L6.75943 148.058L7.6 148.6ZM20.2 132.2L19.4558 131.532L19.4548 131.533L20.2 132.2ZM33 115.6L33.835 116.15L33.8406 116.142L33 115.6ZM31.2 91.6L30.8685 92.5435L30.8836 92.5488L30.8989 92.5536L31.2 91.6ZM6.4 88.8L5.45132 88.4838L5.01785 89.7842L6.38851 89.7999L6.4 88.8ZM7 87L6.9913 86L6.27716 86.0062L6.05132 86.6838L7 87ZM38.8 80.8L39.3633 81.6262L39.3673 81.6235L38.8 80.8ZM42.4 42.8L43.3214 42.4113L42.4 42.8ZM76.4 1.6L77.3806 1.40388L77.1915 0.458328L76.2397 0.612934L76.4 1.6ZM76.6 2.59999L76.7942 3.58097L77.7771 3.38643L77.5806 2.40388L76.6 2.59999ZM51 11L50.4164 10.188L50.4102 10.1924L50.4042 10.1969L51 11ZM49.4 40L48.4624 40.3478L48.4643 40.3528L49.4 40ZM19.6 87.4L19.4902 86.406L18.7629 86.4864L18.6194 87.2039L19.6 87.4ZM19.4 88.4L18.4194 88.2039L18.1953 89.3244L19.3356 89.3979L19.4 88.4ZM38.8 116.2L37.9376 115.694L37.9335 115.701L37.9294 115.708L38.8 116.2ZM27 133.2L26.2366 132.554L26.2317 132.56L26.2269 132.566L27 133.2ZM15.2 149.6L14.3531 149.068L14.3486 149.075L14.3443 149.083L15.2 149.6ZM15.6 171.4L16.0722 170.519L16.0598 170.512L16.0472 170.506L15.6 171.4ZM35.4 176.4L34.4136 176.236L34.2136 177.436L35.2 177.6L36.1864 177.764L36.3864 176.564L35.4 176.4ZM35.2 177.6L35.2895 176.604C23.4388 175.539 15.0426 173.882 9.99959 171.683L9.6 172.6L9.20041 173.517C14.5574 175.852 23.2278 177.528 35.1105 178.596L35.2 177.6ZM9.6 172.6L9.99959 171.683C4.96749 169.49 2.8 166.691 2.8 163.4H1.8H0.8C0.8 167.842 3.83251 171.177 9.20041 173.517L9.6 172.6ZM1.8 163.4H2.8C2.8 159.829 4.60263 155.097 8.44057 149.142L7.6 148.6L6.75943 148.058C2.86404 154.103 0.8 159.238 0.8 163.4H1.8ZM7.6 148.6L8.43496 149.15C12.2755 143.323 16.4457 137.896 20.9452 132.867L20.2 132.2L19.4548 131.533C14.8876 136.638 10.6578 142.143 6.76504 148.05L7.6 148.6ZM20.2 132.2L20.9442 132.868C25.6442 127.631 29.9412 122.058 33.835 116.15L33 115.6L32.165 115.05C28.3255 120.875 24.0891 126.369 19.4558 131.532L20.2 132.2ZM33 115.6L33.8406 116.142C37.736 110.097 39.8 104.962 39.8 100.8H38.8H37.8C37.8 104.371 35.9974 109.103 32.1594 115.058L33 115.6ZM38.8 100.8H39.8C39.8 98.3352 39.1062 96.2005 37.671 94.4631C36.2466 92.7389 34.158 91.4854 31.5011 90.6464L31.2 91.6L30.8989 92.5536C33.3086 93.3146 35.02 94.3944 36.129 95.7369C37.2272 97.0662 37.8 98.7314 37.8 100.8H38.8ZM31.2 91.6L31.5315 90.6565C26.431 88.8645 18.0206 87.9335 6.41149 87.8001L6.4 88.8L6.38851 89.7999C17.9794 89.9332 26.1024 90.8689 30.8685 92.5435L31.2 91.6ZM6.4 88.8L7.34868 89.1162L7.94868 87.3162L7 87L6.05132 86.6838L5.45132 88.4838L6.4 88.8ZM7 87L7.0087 88C22.3574 87.8665 33.2289 85.8088 39.3633 81.6262L38.8 80.8L38.2367 79.9738C32.6378 83.7912 22.3092 85.8668 6.9913 86L7 87ZM38.8 80.8L39.3673 81.6235C45.6627 77.2867 48.8 70.9647 48.8 62.8H47.8H46.8C46.8 70.3686 43.9373 76.0466 38.2327 79.9765L38.8 80.8ZM47.8 62.8H48.8C48.8 57.7932 46.934 50.9746 43.3214 42.4113L42.4 42.8L41.4786 43.1887C45.066 51.692 46.8 58.2068 46.8 62.8H47.8ZM42.4 42.8L43.3214 42.4113C41.5286 38.1618 40.1925 34.5958 39.306 31.7067C38.4136 28.7981 38 26.647 38 25.2H37H36C36 26.9529 36.4864 29.3352 37.394 32.2933C38.3075 35.2708 39.6714 38.9048 41.4786 43.1887L42.4 42.8ZM37 25.2H38C38 19.9335 40.9846 15.379 47.3639 11.5579C53.7699 7.72073 63.4735 4.71284 76.5603 2.58706L76.4 1.6L76.2397 0.612934C63.0598 2.75382 53.0634 5.8126 46.3361 9.84212C39.5821 13.8877 36 18.9998 36 25.2H37ZM76.4 1.6L75.4194 1.79612L75.6194 2.79612L76.6 2.59999L77.5806 2.40388L77.3806 1.40388L76.4 1.6ZM76.6 2.59999L76.4059 1.61902C69.9822 2.89038 64.6064 4.23294 60.2882 5.64984C55.9829 7.06252 52.6711 8.56735 50.4164 10.188L51 11L51.5836 11.812C53.5955 10.366 56.6838 8.93747 60.9118 7.55015C65.1269 6.16705 70.4179 4.84294 76.7942 3.58097L76.6 2.59999ZM51 11L50.4042 10.1969C46.0213 13.4487 43.8 17.8109 43.8 23.2H44.8H45.8C45.8 18.4558 47.712 14.6846 51.5958 11.8031L51 11ZM44.8 23.2H43.8C43.8 24.8055 44.2135 27.0447 44.9855 29.8641C45.7628 32.7028 46.9235 36.1995 48.4624 40.3478L49.4 40L50.3376 39.6522C48.8098 35.5338 47.6706 32.0972 46.9145 29.3359C46.1531 26.5553 45.8 24.5278 45.8 23.2H44.8ZM49.4 40L48.4643 40.3528C51.5186 48.4534 53 54.717 53 59.2H54H55C55 54.3497 53.4147 47.8133 50.3357 39.6472L49.4 40ZM54 59.2H53C53 67.0668 50.2433 73.1866 44.766 77.6766C39.2441 82.2033 30.8632 85.1497 19.4902 86.406L19.6 87.4L19.7098 88.394C31.2702 87.1169 40.0892 84.0967 46.034 79.2234C52.0234 74.3134 55 67.5999 55 59.2H54ZM19.6 87.4L18.6194 87.2039L18.4194 88.2039L19.4 88.4L20.3806 88.5961L20.5806 87.5961L19.6 87.4ZM19.4 88.4L19.3356 89.3979C27.559 89.9285 33.6024 91.2011 37.5586 93.1473C41.4728 95.0728 43.2 97.5678 43.2 100.6H44.2H45.2C45.2 96.5656 42.7939 93.4938 38.4414 91.3527C34.131 89.2322 27.7743 87.9382 19.4644 87.4021L19.4 88.4ZM44.2 100.6H43.2C43.2 104.607 41.5008 109.623 37.9376 115.694L38.8 116.2L39.6624 116.706C43.2992 110.51 45.2 105.127 45.2 100.6H44.2ZM38.8 116.2L37.9294 115.708C34.4925 121.789 30.5948 127.403 26.2366 132.554L27 133.2L27.7634 133.846C32.2052 128.597 36.1741 122.878 39.6706 116.692L38.8 116.2ZM27 133.2L26.2269 132.566C21.9333 137.798 17.9754 143.299 14.3531 149.068L15.2 149.6L16.0469 150.132C19.6246 144.434 23.5333 139.002 27.7731 133.834L27 133.2ZM15.2 149.6L14.3443 149.083C10.8565 154.851 9 159.648 9 163.4H10H11C11 160.219 12.6101 155.816 16.0557 150.117L15.2 149.6ZM10 163.4H9C9 165.324 9.52195 167.061 10.5808 168.573C11.6327 170.076 13.1783 171.307 15.1528 172.294L15.6 171.4L16.0472 170.506C14.2884 169.626 13.034 168.59 12.2192 167.427C11.4114 166.272 11 164.942 11 163.4H10ZM15.6 171.4L15.1278 172.281C19.0307 174.372 25.7869 176.056 35.2605 177.39L35.4 176.4L35.5395 175.41C26.0798 174.077 19.6359 172.428 16.0722 170.519L15.6 171.4ZM142.606 2.79999L141.62 2.63559L141.451 3.64719L142.467 3.79022L142.606 2.79999ZM142.806 1.6L142.896 0.604012L141.972 0.521004L141.82 1.4356L142.806 1.6ZM168.406 6.59999L168.806 5.6833L168.406 6.59999ZM170.406 30L169.583 29.4318L169.58 29.436L170.406 30ZM157.806 45.4L157.089 44.7029L157.084 44.7081L157.079 44.7134L157.806 45.4ZM145.206 61L144.383 60.4318L144.38 60.436L145.206 61ZM147.006 84.4L146.675 85.3435L146.69 85.3488L146.705 85.3536L147.006 84.4ZM172.006 87L172.955 87.3162L173.388 86.0158L172.018 86.0001L172.006 87ZM171.406 88.8L171.415 89.8L172.129 89.7938L172.355 89.1162L171.406 88.8ZM139.406 95.2L139.97 96.0262L139.976 96.0219L139.982 96.0175L139.406 95.2ZM135.806 134.8L134.864 135.136L134.866 135.14L135.806 134.8ZM131.206 168.8L130.71 167.932L130.702 167.936L131.206 168.8ZM101.606 177.6L100.678 177.971L100.975 178.714L101.764 178.587L101.606 177.6ZM101.206 176.6L101.014 175.619L99.8295 175.851L100.278 176.971L101.206 176.6ZM126.806 168.2L126.24 167.376L126.225 167.386L126.21 167.397L126.806 168.2ZM128.806 137.6L129.76 137.3L128.806 137.6ZM158.606 88.4L158.717 89.3939L159.443 89.3131L159.587 88.5961L158.606 88.4ZM158.806 87.4L159.787 87.5961L160.009 86.4853L158.879 86.4027L158.806 87.4ZM139.406 60.2L138.554 59.677L138.551 59.6826L139.406 60.2ZM151.006 44.2L150.259 43.5356L150.254 43.5415L150.248 43.5475L151.006 44.2ZM162.606 29L161.777 28.4405L161.773 28.4477L161.768 28.455L162.606 29ZM162.406 7.79999L161.934 8.68147L161.946 8.68812L161.959 8.69442L162.406 7.79999ZM142.606 2.79999L143.593 2.96439L143.793 1.7644L142.806 1.6L141.82 1.4356L141.62 2.63559L142.606 2.79999ZM142.806 1.6L142.717 2.59598C154.567 3.66121 162.964 5.31843 168.007 7.51669L168.406 6.59999L168.806 5.6833C163.449 3.34822 154.778 1.67211 142.896 0.604012L142.806 1.6ZM168.406 6.59999L168.007 7.51669C173.039 9.71017 175.206 12.5088 175.206 15.8H176.206H177.206C177.206 11.3579 174.174 8.02316 168.806 5.6833L168.406 6.59999ZM176.206 15.8H175.206C175.206 19.3607 173.412 23.8871 169.583 29.4318L170.406 30L171.229 30.5682C175.134 24.9129 177.206 19.9727 177.206 15.8H176.206ZM170.406 30L169.58 29.436C165.88 34.8548 161.716 39.9436 157.089 44.7029L157.806 45.4L158.523 46.0971C163.229 41.2564 167.466 36.0786 171.232 30.564L170.406 30ZM157.806 45.4L157.079 44.7134C152.51 49.5515 148.278 54.7912 144.383 60.4318L145.206 61L146.029 61.5682C149.868 56.0088 154.036 50.8485 158.533 46.0866L157.806 45.4ZM145.206 61L144.38 60.436C140.606 65.9635 138.606 70.8341 138.606 75H139.606H140.606C140.606 71.4326 142.34 66.9698 146.032 61.564L145.206 61ZM139.606 75H138.606C138.606 77.4588 139.28 79.6018 140.671 81.3686C142.053 83.1243 144.084 84.4331 146.675 85.3435L147.006 84.4L147.338 83.4565C144.996 82.6336 143.326 81.509 142.242 80.1314C141.166 78.7649 140.606 77.0746 140.606 75H139.606ZM147.006 84.4L146.705 85.3536C151.923 87.0014 160.384 87.8665 171.995 87.9999L172.006 87L172.018 86.0001C160.428 85.8669 152.223 84.9986 147.307 83.4464L147.006 84.4ZM172.006 87L171.058 86.6838L170.458 88.4838L171.406 88.8L172.355 89.1162L172.955 87.3162L172.006 87ZM171.406 88.8L171.398 87.8C155.915 87.9335 144.969 90.0574 138.83 94.3825L139.406 95.2L139.982 96.0175C145.577 92.0759 155.964 89.9332 171.415 89.8L171.406 88.8ZM139.406 95.2L138.843 94.3738C132.67 98.5824 129.606 104.844 129.606 113H130.606H131.606C131.606 105.422 134.409 99.8176 139.97 96.0262L139.406 95.2ZM130.606 113H129.606C129.606 117.984 131.393 125.39 134.864 135.136L135.806 134.8L136.748 134.464C133.286 124.744 131.606 117.616 131.606 113H130.606ZM135.806 134.8L134.866 135.14C136.594 139.926 137.884 143.898 138.741 147.061C139.604 150.247 140.006 152.54 140.006 154H141.006H142.006C142.006 152.26 141.542 149.753 140.671 146.539C139.795 143.302 138.485 139.274 136.747 134.46L135.806 134.8ZM141.006 154H140.006C140.006 159.688 137.015 164.329 130.71 167.932L131.206 168.8L131.702 169.668C138.464 165.804 142.006 160.579 142.006 154H141.006ZM131.206 168.8L130.702 167.936C124.463 171.576 114.743 174.485 101.448 176.613L101.606 177.6L101.764 178.587C115.136 176.448 125.149 173.491 131.71 169.664L131.206 168.8ZM101.606 177.6L102.535 177.229L102.135 176.229L101.206 176.6L100.278 176.971L100.678 177.971L101.606 177.6ZM101.206 176.6L101.398 177.581C107.889 176.31 113.299 174.967 117.618 173.55C121.923 172.138 125.208 170.631 127.402 169.003L126.806 168.2L126.21 167.397C124.271 168.836 121.223 170.262 116.994 171.65C112.78 173.033 107.457 174.357 101.014 175.619L101.206 176.6ZM126.806 168.2L127.373 169.024C131.912 165.903 134.206 161.528 134.206 156H133.206H132.206C132.206 160.872 130.234 164.63 126.24 167.376L126.806 168.2ZM133.206 156H134.206C134.206 154.408 133.814 152.044 133.079 148.967C132.338 145.869 131.231 141.978 129.76 137.3L128.806 137.6L127.852 137.9C129.315 142.555 130.408 146.397 131.134 149.433C131.865 152.489 132.206 154.659 132.206 156H133.206ZM128.806 137.6L129.76 137.3C126.832 127.982 125.406 121.105 125.406 116.6H124.406H123.406C123.406 121.429 124.914 128.552 127.852 137.9L128.806 137.6ZM124.406 116.6H125.406C125.406 108.731 128.148 102.611 133.592 98.1215C139.081 93.5959 147.411 90.65 158.717 89.3939L158.606 88.4L158.496 87.4061C147.001 88.6833 138.232 91.7041 132.32 96.5785C126.365 101.489 123.406 108.202 123.406 116.6H124.406ZM158.606 88.4L159.587 88.5961L159.787 87.5961L158.806 87.4L157.826 87.2039L157.626 88.2039L158.606 88.4ZM158.806 87.4L158.879 86.4027C150.722 85.8058 144.726 84.501 140.801 82.5541C136.913 80.6261 135.206 78.1621 135.206 75.2H134.206H133.206C133.206 79.1712 135.6 82.2073 139.912 84.3459C144.186 86.4656 150.49 87.7942 158.733 88.3973L158.806 87.4ZM134.206 75.2H135.206C135.206 71.1917 136.841 66.3759 140.262 60.7174L139.406 60.2L138.551 59.6826C135.039 65.4908 133.206 70.6749 133.206 75.2H134.206ZM139.406 60.2L140.259 60.723C143.833 54.8981 147.668 49.6086 151.764 44.8525L151.006 44.2L150.248 43.5475C146.077 48.3914 142.18 53.7686 138.554 59.677L139.406 60.2ZM151.006 44.2L151.754 44.8644C156.053 40.0273 159.95 34.9207 163.445 29.545L162.606 29L161.768 28.455C158.329 33.7459 154.493 38.7727 150.259 43.5356L151.006 44.2ZM162.606 29L163.435 29.5595C167.065 24.1822 169.006 19.5743 169.006 15.8H168.006H167.006C167.006 18.959 165.348 23.1511 161.777 28.4405L162.606 29ZM168.006 15.8H169.006C169.006 13.8756 168.484 12.1391 167.425 10.6265C166.374 9.12381 164.828 7.89281 162.853 6.90556L162.406 7.79999L161.959 8.69442C163.718 9.57383 164.972 10.6095 165.787 11.7735C166.595 12.9275 167.006 14.2577 167.006 15.8H168.006ZM162.406 7.79999L162.878 6.91851C158.976 4.82764 152.219 3.14408 142.746 1.80976L142.606 2.79999L142.467 3.79022C151.926 5.12257 158.37 6.77234 161.934 8.68147L162.406 7.79999Z" fill="#1A1A1A" fill-opacity="0.1" mask="url(#path-1-outside-1_700_788)"/>
</svg>
