<svg width="43" height="43" viewBox="0 0 43 43" fill="none" xmlns="http://www.w3.org/2000/svg">
<g filter="url(#filter0_d_627_308)">
<rect x="4" width="35" height="35" rx="17.5" fill="#333333"/>
<path d="M18.5873 17.5449C18.5873 15.9327 19.8935 14.6254 21.5053 14.6254C23.117 14.6254 24.4239 15.9327 24.4239 17.5449C24.4239 19.1571 23.117 20.4644 21.5053 20.4644C19.8935 20.4644 18.5873 19.1571 18.5873 17.5449ZM17.0095 17.5449C17.0095 20.0286 19.0223 22.0419 21.5053 22.0419C23.9882 22.0419 26.001 20.0286 26.001 17.5449C26.001 15.0612 23.9882 13.0479 21.5053 13.0479C19.0223 13.0479 17.0095 15.0612 17.0095 17.5449ZM25.1283 12.8696C25.1282 13.0774 25.1898 13.2806 25.3051 13.4535C25.4205 13.6264 25.5846 13.7611 25.7765 13.8408C25.9684 13.9204 26.1797 13.9413 26.3835 13.9008C26.5873 13.8603 26.7746 13.7603 26.9216 13.6134C27.0685 13.4665 27.1687 13.2793 27.2093 13.0754C27.2499 12.8716 27.2292 12.6603 27.1498 12.4682C27.0703 12.2761 26.9357 12.1119 26.763 11.9964C26.5903 11.8809 26.3872 11.8191 26.1794 11.8191H26.1789C25.9004 11.8192 25.6333 11.9299 25.4363 12.1269C25.2393 12.3238 25.1286 12.591 25.1283 12.8696ZM17.9681 24.6735C17.1145 24.6346 16.6506 24.4924 16.3422 24.3722C15.9335 24.2131 15.6418 24.0235 15.3352 23.7172C15.0285 23.4108 14.8387 23.1194 14.6803 22.7105C14.5601 22.4022 14.4179 21.938 14.3791 21.0842C14.3367 20.161 14.3282 19.8837 14.3282 17.545C14.3282 15.2062 14.3374 14.9297 14.3791 14.0058C14.418 13.1519 14.5612 12.6886 14.6803 12.3794C14.8394 11.9705 15.029 11.6788 15.3352 11.3721C15.6414 11.0653 15.9328 10.8755 16.3422 10.717C16.6504 10.5967 17.1145 10.4545 17.9681 10.4157C18.891 10.3732 19.1682 10.3648 21.5053 10.3648C23.8423 10.3648 24.1198 10.3739 25.0434 10.4157C25.897 10.4546 26.3602 10.5979 26.6693 10.717C27.0781 10.8755 27.3697 11.0657 27.6764 11.3721C27.983 11.6784 28.1721 11.9705 28.3313 12.3794C28.4515 12.6877 28.5936 13.1519 28.6324 14.0058C28.6749 14.9297 28.6834 15.2062 28.6834 17.545C28.6834 19.8837 28.6749 20.1602 28.6324 21.0842C28.5936 21.938 28.4507 22.4021 28.3313 22.7105C28.1721 23.1194 27.9826 23.4111 27.6764 23.7172C27.3701 24.0232 27.0781 24.2131 26.6693 24.3722C26.3611 24.4925 25.897 24.6347 25.0434 24.6735C24.1205 24.716 23.8433 24.7244 21.5053 24.7244C19.1672 24.7244 18.8907 24.716 17.9681 24.6735ZM17.8956 8.84015C16.9636 8.8826 16.3267 9.03044 15.7705 9.24693C15.1945 9.4705 14.7068 9.77043 14.2196 10.2571C13.7323 10.7437 13.4332 11.2323 13.2097 11.8085C12.9933 12.3652 12.8455 13.0019 12.803 13.9342C12.7599 14.868 12.75 15.1666 12.75 17.5449C12.75 19.9232 12.7599 20.2218 12.803 21.1555C12.8455 22.0879 12.9933 22.7246 13.2097 23.2813C13.4332 23.8571 13.7323 24.3462 14.2196 24.8327C14.7068 25.3191 15.1945 25.6186 15.7705 25.8428C16.3277 26.0593 16.9636 26.2072 17.8956 26.2496C18.8296 26.2921 19.1276 26.3027 21.5053 26.3027C23.8829 26.3027 24.1813 26.2928 25.1149 26.2496C26.047 26.2072 26.6835 26.0593 27.24 25.8428C27.8157 25.6186 28.3037 25.3193 28.7909 24.8327C29.2782 24.346 29.5767 23.8571 29.8008 23.2813C30.0172 22.7246 30.1657 22.0879 30.2075 21.1555C30.2499 20.2211 30.2598 19.9232 30.2598 17.5449C30.2598 15.1666 30.2499 14.868 30.2075 13.9342C30.165 13.0018 30.0172 12.3648 29.8008 11.8085C29.5767 11.2326 29.2775 10.7445 28.7909 10.2571C28.3044 9.76966 27.8157 9.4705 27.2407 9.24693C26.6835 9.03044 26.0469 8.8819 25.1156 8.84015C24.182 8.79769 23.8836 8.78711 21.506 8.78711C19.1283 8.78711 18.8296 8.79699 17.8956 8.84015Z" fill="white"/>
</g>
<defs>
<filter id="filter0_d_627_308" x="0" y="0" width="43" height="43" filterUnits="userSpaceOnUse" color-interpolation-filters="sRGB">
<feFlood flood-opacity="0" result="BackgroundImageFix"/>
<feColorMatrix in="SourceAlpha" type="matrix" values="0 0 0 0 0 0 0 0 0 0 0 0 0 0 0 0 0 0 127 0" result="hardAlpha"/>
<feOffset dy="4"/>
<feGaussianBlur stdDeviation="2"/>
<feComposite in2="hardAlpha" operator="out"/>
<feColorMatrix type="matrix" values="0 0 0 0 0.101961 0 0 0 0 0.101961 0 0 0 0 0.101961 0 0 0 0.1 0"/>
<feBlend mode="normal" in2="BackgroundImageFix" result="effect1_dropShadow_627_308"/>
<feBlend mode="normal" in="SourceGraphic" in2="effect1_dropShadow_627_308" result="shape"/>
</filter>
</defs>
</svg>
