<svg width="15" height="15" viewBox="0 0 15 15" fill="none" xmlns="http://www.w3.org/2000/svg">
<path d="M12.525 9.9551C12.5411 9.95514 12.8489 9.77069 13.209 9.54521C13.5691 9.3197 13.8566 9.12174 13.848 9.10534C13.8393 9.08894 13.6664 8.85542 13.4637 8.58642C13.0565 8.04622 12.6646 7.33206 12.4909 6.81402C11.9497 5.19946 12.1988 3.52288 13.1811 2.16956L13.4312 1.82494L12.955 1.34876L12.4788 0.872556L12.1641 1.09687C10.1019 2.56648 7.63033 2.39738 5.43904 0.63683C5.29596 0.521857 5.17363 0.433129 5.16716 0.439598C5.1076 0.499155 4.3586 1.7238 4.35878 1.76131C4.3589 1.78842 4.4899 1.89934 4.64987 2.00771C6.4211 3.20783 8.44766 3.59913 10.0142 3.04358L10.3899 2.91032L5.16567 8.15359L1.86219 11.4691L2.82589 12.4328L6.14994 9.12084L11.3809 3.90894L11.2224 4.39306C10.8111 5.64896 10.9796 7.13735 11.7029 8.63795C11.9089 9.06549 12.464 9.95481 12.525 9.9551Z" fill="#1A1A1A"/>
</svg>
