<svg width="168" height="252" viewBox="0 0 168 252" fill="none" xmlns="http://www.w3.org/2000/svg">
<mask id="path-1-outside-1_788_241" maskUnits="userSpaceOnUse" x="39" y="0" width="90" height="127" fill="black">
<rect fill="white" x="39" width="90" height="127"/>
<path d="M79.7426 125.25C81.8426 86.75 82.9426 48.7 83.0426 11.1C76.2426 17.7 71.3926 22.35 68.4926 25.05C65.5926 27.85 61.4926 31.45 56.1926 35.85C50.8926 40.25 45.8926 43.95 41.1926 46.95L40.5926 46.2C56.9926 32.3 71.2426 17.3 83.3426 1.2H84.0926C97.3926 18.9 111.643 33.9 126.843 46.2L126.243 46.95C124.143 45.55 122.093 44.1 120.093 42.6C117.993 41.2 115.843 39.55 113.643 37.65C111.343 35.85 109.493 34.35 108.093 33.15C106.593 31.95 104.543 30.1 101.943 27.6C99.2426 25.2 97.3926 23.5 96.3926 22.5C95.3926 21.6 93.3426 19.65 90.2426 16.65C87.0426 13.65 85.0426 11.8 84.2426 11.1C84.3426 46.6 85.4926 84.65 87.6926 125.25H79.7426Z"/>
</mask>
<path d="M79.7426 125.25L78.7441 125.196L78.6865 126.25H79.7426V125.25ZM83.0426 11.1L84.0426 11.1027L84.0489 8.72972L82.3461 10.3824L83.0426 11.1ZM68.4926 25.05L67.8112 24.3181L67.8045 24.3243L67.798 24.3306L68.4926 25.05ZM56.1926 35.85L55.5538 35.0806L56.1926 35.85ZM41.1926 46.95L40.4117 47.5747L40.9731 48.2764L41.7306 47.7929L41.1926 46.95ZM40.5926 46.2L39.946 45.4371L39.2045 46.0656L39.8117 46.8247L40.5926 46.2ZM83.3426 1.2V0.199997H82.8432L82.5432 0.599205L83.3426 1.2ZM84.0926 1.2L84.892 0.599274L84.592 0.199997H84.0926V1.2ZM126.843 46.2L127.623 46.8247L128.245 46.0482L127.472 45.4226L126.843 46.2ZM126.243 46.95L125.688 47.7821L126.451 48.2906L127.023 47.5747L126.243 46.95ZM120.093 42.6L120.693 41.8L120.67 41.7833L120.647 41.768L120.093 42.6ZM113.643 37.65L114.296 36.8932L114.278 36.8774L114.259 36.8625L113.643 37.65ZM108.093 33.15L108.743 32.3907L108.731 32.3797L108.717 32.3691L108.093 33.15ZM101.943 27.6L102.636 26.8792L102.622 26.8656L102.607 26.8526L101.943 27.6ZM96.3926 22.5L97.0997 21.7929L97.0811 21.7743L97.0615 21.7567L96.3926 22.5ZM90.2426 16.65L90.938 15.9314L90.9323 15.9259L90.9265 15.9205L90.2426 16.65ZM84.2426 11.1L84.9011 10.3474L83.2364 8.89078L83.2426 11.1028L84.2426 11.1ZM87.6926 125.25V126.25H88.7482L88.6911 125.196L87.6926 125.25ZM79.7426 125.25L80.7411 125.304C82.842 86.7877 83.9425 48.7204 84.0426 11.1027L83.0426 11.1L82.0426 11.0973C81.9426 48.6796 80.8431 86.7124 78.7441 125.196L79.7426 125.25ZM83.0426 11.1L82.3461 10.3824C75.5462 16.9824 70.7028 21.6259 67.8112 24.3181L68.4926 25.05L69.174 25.7819C72.0824 23.0741 76.939 18.4176 83.7391 11.8176L83.0426 11.1ZM68.4926 25.05L67.798 24.3306C64.9241 27.1053 60.846 30.6871 55.5538 35.0806L56.1926 35.85L56.8313 36.6194C62.1392 32.2129 66.261 28.5947 69.1872 25.7694L68.4926 25.05ZM56.1926 35.85L55.5538 35.0806C50.2787 39.4599 45.3125 43.1339 40.6545 46.1071L41.1926 46.95L41.7306 47.7929C46.4727 44.7661 51.5064 41.0401 56.8313 36.6194L56.1926 35.85ZM41.1926 46.95L41.9734 46.3253L41.3734 45.5753L40.5926 46.2L39.8117 46.8247L40.4117 47.5747L41.1926 46.95ZM40.5926 46.2L41.2391 46.9629C57.6922 33.0179 71.9943 17.9642 84.142 1.8008L83.3426 1.2L82.5432 0.599205C70.4908 16.6358 56.293 31.5821 39.946 45.4371L40.5926 46.2ZM83.3426 1.2V2.2H84.0926V1.2V0.199997H83.3426V1.2ZM84.0926 1.2L83.2931 1.80072C96.6361 19.5579 110.942 34.6194 126.214 46.9774L126.843 46.2L127.472 45.4226C112.343 33.1806 98.1491 18.2421 84.892 0.599274L84.0926 1.2ZM126.843 46.2L126.062 45.5753L125.462 46.3253L126.243 46.95L127.023 47.5747L127.623 46.8247L126.843 46.2ZM126.243 46.95L126.797 46.118C124.713 44.7281 122.678 43.2888 120.693 41.8L120.093 42.6L119.493 43.4C121.508 44.9112 123.573 46.3719 125.688 47.7821L126.243 46.95ZM120.093 42.6L120.647 41.768C118.586 40.3941 116.469 38.77 114.296 36.8932L113.643 37.65L112.989 38.4068C115.216 40.33 117.399 42.0059 119.538 43.4321L120.093 42.6ZM113.643 37.65L114.259 36.8625C111.965 35.067 110.128 33.5772 108.743 32.3907L108.093 33.15L107.442 33.9093C108.858 35.1228 110.72 36.633 113.026 38.4375L113.643 37.65ZM108.093 33.15L108.717 32.3691C107.253 31.1979 105.229 29.3729 102.636 26.8792L101.943 27.6L101.249 28.3208C103.856 30.8271 105.932 32.7021 107.468 33.9309L108.093 33.15ZM101.943 27.6L102.607 26.8526C99.906 24.4517 98.0764 22.7696 97.0997 21.7929L96.3926 22.5L95.6855 23.2071C96.7088 24.2304 98.5792 25.9483 101.278 28.3474L101.943 27.6ZM96.3926 22.5L97.0615 21.7567C96.0774 20.871 94.0408 18.9341 90.938 15.9314L90.2426 16.65L89.5472 17.3686C92.6443 20.3659 94.7077 22.329 95.7236 23.2433L96.3926 22.5ZM90.2426 16.65L90.9265 15.9205C87.7315 12.9251 85.717 11.0613 84.9011 10.3474L84.2426 11.1L83.5841 11.8526C84.3682 12.5387 86.3537 14.3749 89.5586 17.3795L90.2426 16.65ZM84.2426 11.1L83.2426 11.1028C83.3426 46.6222 84.4932 84.6894 86.694 125.304L87.6926 125.25L88.6911 125.196C86.4919 84.6106 85.3425 46.5778 85.2426 11.0972L84.2426 11.1ZM87.6926 125.25V124.25H79.7426V125.25V126.25H87.6926V125.25Z" fill="#1A1A1A" fill-opacity="0.1" mask="url(#path-1-outside-1_788_241)"/>
<path d="M0 210C0 163.608 37.6081 126 84 126C130.392 126 168 163.608 168 210V252H166V210C166 164.713 129.287 128 84 128C39.0664 128 2.57414 164.141 2.00684 208.94L2 210V252H0V210Z" fill="#1A1A1A" fill-opacity="0.1"/>
</svg>
