<svg width="25" height="29" viewBox="0 0 25 29" fill="none" xmlns="http://www.w3.org/2000/svg">
<path d="M23.9383 13.1241C23.2488 11.7078 22.2466 10.4366 20.9943 9.39005L19.961 8.52462C19.9258 8.49603 19.8837 8.47575 19.838 8.46555C19.7923 8.45535 19.7446 8.45554 19.699 8.4661C19.6534 8.47665 19.6114 8.49727 19.5766 8.52612C19.5418 8.55497 19.5153 8.59118 19.4993 8.63157L19.0377 9.84059C18.75 10.5991 18.2209 11.3737 17.4716 12.1354C17.4218 12.1841 17.3651 12.1971 17.326 12.2002C17.2869 12.2035 17.2266 12.1971 17.1733 12.1516C17.1236 12.1127 17.0987 12.0544 17.1023 11.9961C17.2337 10.0448 16.5945 7.84394 15.1953 5.4486C14.0377 3.45844 12.429 1.90585 10.419 0.823253L8.95247 0.035615C8.76063 -0.0681062 8.51558 0.0680332 8.52627 0.272234L8.60443 1.82806C8.65765 2.89122 8.52271 3.8312 8.20318 4.61235C7.81249 5.56854 7.25143 6.45665 6.5341 7.25402C6.0349 7.80818 5.46909 8.3094 4.84731 8.74827C3.34981 9.79899 2.13216 11.1453 1.28552 12.6865C0.440963 14.241 0.00103233 15.9526 0 17.6879C0 19.2177 0.330258 20.6989 0.983671 22.0959C1.61458 23.441 2.52507 24.6617 3.66478 25.6907C4.81534 26.7278 6.15057 27.5447 7.63847 28.1118C9.17971 28.7017 10.8132 29 12.5 29C14.1869 29 15.8204 28.7017 17.3615 28.1151C18.8458 27.5512 20.1955 26.7288 21.3352 25.6938C22.4858 24.6566 23.3878 23.4444 24.0163 22.0992C24.6688 20.706 25.0035 19.2061 25 17.691C25 16.1092 24.6449 14.5729 23.9383 13.1241Z" fill="#FFDC1F"/>
</svg>
