<svg width="401" height="300" viewBox="0 0 401 300" fill="none" xmlns="http://www.w3.org/2000/svg">
<mask id="path-1-outside-1_788_240" maskUnits="userSpaceOnUse" x="87" y="61" width="148" height="158" fill="black">
<rect fill="white" x="87" y="61" width="148" height="158"/>
<path d="M185.4 176.6C189.667 176.6 194.067 175.4 198.6 173C203.267 170.6 207.733 167.133 212 162.6C216.267 157.933 219.733 151.733 222.4 144C225.067 136.133 226.4 127.4 226.4 117.8C226.4 100.467 222.4 87.4 214.4 78.6C206.533 69.6667 193.467 65.2 175.2 65.2C153.733 65.2 134.933 74.6 118.8 93.4C102.8 112.2 94.8 134.933 94.8 161.6C94.8 177.467 98.7333 189.867 106.6 198.8C114.6 207.867 126.333 212.4 141.8 212.4C157.133 212.4 170.467 207.6 181.8 198L182.6 198.8C170.6 211.067 156.133 217.2 139.2 217.2C122.8 217.2 110.133 212.267 101.2 202.4C92.4 192.533 88 178.933 88 161.6C88 143.067 92.2667 126.133 100.8 110.8C109.467 95.4667 120.8 83.6 134.8 75.2C148.8 66.6667 163.8 62.4 179.8 62.4C197.8 62.4 211.267 67.0667 220.2 76.4C229.133 85.6 233.6 98.8 233.6 116C233.6 124.8 231.733 133.467 228 142C224.4 150.4 219.867 157.533 214.4 163.4C209.067 169.133 203.467 173.8 197.6 177.4C191.733 180.867 186.533 182.6 182 182.6C179.6 182.467 177.667 181.2 176.2 178.8C174.733 176.4 174 173.267 174 169.4C174 155.4 179 133.067 189 102.4L188 102C172.4 133.733 161.067 155.133 154 166.2C146.933 177.133 140.067 182.6 133.4 182.6C129.533 182.6 126.467 181 124.2 177.8C122.067 174.467 121 169.8 121 163.8C121 155.4 122.733 147 126.2 138.6C129.8 130.2 134.733 122.667 141 116C147.267 109.2 155.267 103.733 165 99.6C174.733 95.4667 185.267 93.4667 196.6 93.6C193.8 102.8 190.467 115.867 186.6 132.8C182.733 149.6 180.8 161.8 180.8 169.4C180.8 174.2 182.333 176.6 185.4 176.6ZM135.4 177.4C140.333 177.4 147 171.2 155.4 158.8C163.8 146.4 175.333 125.2 190 95.2C180 96.4 170.867 99.5333 162.6 104.6C154.333 109.533 147.733 115.4 142.8 122.2C137.867 128.867 134.067 135.867 131.4 143.2C128.867 150.4 127.6 157.267 127.6 163.8C127.6 172.867 130.2 177.4 135.4 177.4Z"/>
</mask>
<path d="M198.6 173L198.143 172.111L198.132 172.116L198.6 173ZM212 162.6L212.728 163.285L212.733 163.28L212.738 163.275L212 162.6ZM222.4 144L223.345 144.326L223.347 144.321L222.4 144ZM214.4 78.6L213.65 79.2609L213.655 79.2668L213.66 79.2727L214.4 78.6ZM118.8 93.4L118.041 92.7488L118.038 92.7519L118.8 93.4ZM106.6 198.8L105.85 199.461L105.85 199.462L106.6 198.8ZM181.8 198L182.507 197.293L181.856 196.642L181.154 197.237L181.8 198ZM182.6 198.8L183.315 199.499L184.006 198.792L183.307 198.093L182.6 198.8ZM101.2 202.4L100.454 203.066L100.459 203.071L101.2 202.4ZM100.8 110.8L99.9294 110.308L99.9262 110.314L100.8 110.8ZM134.8 75.2L135.315 76.0575L135.32 76.0539L134.8 75.2ZM220.2 76.4L219.478 77.0915L219.483 77.0966L220.2 76.4ZM228 142L227.084 141.599L227.081 141.606L228 142ZM214.4 163.4L213.668 162.718L213.668 162.719L214.4 163.4ZM197.6 177.4L198.109 178.261L198.116 178.257L198.123 178.252L197.6 177.4ZM182 182.6L181.945 183.598L181.972 183.6H182V182.6ZM176.2 178.8L177.053 178.279L176.2 178.8ZM189 102.4L189.951 102.71L190.241 101.819L189.371 101.472L189 102.4ZM188 102L188.371 101.072L187.511 100.727L187.103 101.559L188 102ZM154 166.2L154.84 166.743L154.843 166.738L154 166.2ZM124.2 177.8L123.358 178.339L123.37 178.359L123.384 178.378L124.2 177.8ZM126.2 138.6L125.281 138.206L125.276 138.219L126.2 138.6ZM141 116L141.729 116.685L141.735 116.678L141 116ZM165 99.6L164.609 98.6796L165 99.6ZM196.6 93.6L197.557 93.8912L197.945 92.6157L196.612 92.6001L196.6 93.6ZM186.6 132.8L187.575 133.024L187.575 133.023L186.6 132.8ZM155.4 158.8L156.228 159.361L155.4 158.8ZM190 95.2L190.898 95.6392L191.706 93.9882L189.881 94.2071L190 95.2ZM162.6 104.6L163.112 105.459L163.123 105.453L162.6 104.6ZM142.8 122.2L143.604 122.795L143.609 122.787L142.8 122.2ZM131.4 143.2L130.46 142.858L130.457 142.868L131.4 143.2ZM185.4 176.6V177.6C189.86 177.6 194.419 176.345 199.068 173.884L198.6 173L198.132 172.116C193.714 174.455 189.474 175.6 185.4 175.6V176.6ZM198.6 173L199.057 173.889C203.842 171.429 208.398 167.887 212.728 163.285L212 162.6L211.272 161.915C207.069 166.38 202.691 169.771 198.143 172.111L198.6 173ZM212 162.6L212.738 163.275C217.12 158.482 220.647 152.152 223.345 144.326L222.4 144L221.455 143.674C218.82 151.314 215.414 157.384 211.262 161.925L212 162.6ZM222.4 144L223.347 144.321C226.054 136.336 227.4 127.493 227.4 117.8H226.4H225.4C225.4 127.307 224.08 135.93 221.453 143.679L222.4 144ZM226.4 117.8H227.4C227.4 100.33 223.37 86.9803 215.14 77.9273L214.4 78.6L213.66 79.2727C221.43 87.8197 225.4 100.603 225.4 117.8H226.4ZM214.4 78.6L215.15 77.9391C207.012 68.697 193.601 64.2 175.2 64.2V65.2V66.2C193.333 66.2 206.055 70.6363 213.65 79.2609L214.4 78.6ZM175.2 65.2V64.2C153.395 64.2 134.332 73.7653 118.041 92.7488L118.8 93.4L119.559 94.0512C135.535 75.4347 154.072 66.2 175.2 66.2V65.2ZM118.8 93.4L118.038 92.7519C101.872 111.748 93.8 134.716 93.8 161.6H94.8H95.8C95.8 135.15 103.728 112.652 119.562 94.0481L118.8 93.4ZM94.8 161.6H93.8C93.8 177.628 97.775 190.292 105.85 199.461L106.6 198.8L107.35 198.139C99.6917 189.442 95.8 177.306 95.8 161.6H94.8ZM106.6 198.8L105.85 199.462C114.09 208.8 126.132 213.4 141.8 213.4V212.4V211.4C126.535 211.4 115.11 206.933 107.35 198.138L106.6 198.8ZM141.8 212.4V213.4C157.362 213.4 170.926 208.521 182.446 198.763L181.8 198L181.154 197.237C170.007 206.679 156.905 211.4 141.8 211.4V212.4ZM181.8 198L181.093 198.707L181.893 199.507L182.6 198.8L183.307 198.093L182.507 197.293L181.8 198ZM182.6 198.8L181.885 198.101C170.07 210.178 155.86 216.2 139.2 216.2V217.2V218.2C156.406 218.2 171.13 211.955 183.315 199.499L182.6 198.8ZM139.2 217.2V216.2C123.012 216.2 110.642 211.339 101.941 201.729L101.2 202.4L100.459 203.071C109.624 213.194 122.588 218.2 139.2 218.2V217.2ZM101.2 202.4L101.946 201.734C93.3551 192.102 89 178.766 89 161.6H88H87C87 179.101 91.4449 192.965 100.454 203.066L101.2 202.4ZM88 161.6H89C89 143.227 93.2279 126.462 101.674 111.286L100.8 110.8L99.9262 110.314C91.3054 125.804 87 142.906 87 161.6H88ZM100.8 110.8L101.671 111.292C110.259 96.097 121.474 84.3616 135.314 76.0575L134.8 75.2L134.286 74.3425C120.126 82.8384 108.674 94.8363 99.9294 110.308L100.8 110.8ZM134.8 75.2L135.32 76.0539C149.168 67.6136 163.988 63.4 179.8 63.4V62.4V61.4C163.612 61.4 148.432 65.7197 134.28 74.3461L134.8 75.2ZM179.8 62.4V63.4C197.637 63.4 210.797 68.0225 219.478 77.0914L220.2 76.4L220.922 75.7085C211.736 66.1108 197.963 61.4 179.8 61.4V62.4ZM220.2 76.4L219.483 77.0966C228.18 86.0535 232.6 98.969 232.6 116H233.6H234.6C234.6 98.631 230.087 85.1465 220.917 75.7034L220.2 76.4ZM233.6 116H232.6C232.6 124.654 230.765 133.185 227.084 141.599L228 142L228.916 142.401C232.702 133.749 234.6 124.946 234.6 116H233.6ZM228 142L227.081 141.606C223.52 149.915 219.046 156.947 213.668 162.718L214.4 163.4L215.132 164.082C220.687 158.12 225.28 150.885 228.919 142.394L228 142ZM214.4 163.4L213.668 162.719C208.388 168.395 202.857 173.001 197.077 176.548L197.6 177.4L198.123 178.252C204.077 174.599 209.746 169.872 215.132 164.081L214.4 163.4ZM197.6 177.4L197.091 176.539C191.307 179.957 186.286 181.6 182 181.6V182.6V183.6C186.781 183.6 192.16 181.776 198.109 178.261L197.6 177.4ZM182 182.6L182.055 181.602C180.043 181.49 178.382 180.453 177.053 178.279L176.2 178.8L175.347 179.321C176.951 181.947 179.157 183.444 181.945 183.598L182 182.6ZM176.2 178.8L177.053 178.279C175.712 176.084 175 173.149 175 169.4H174H173C173 173.384 173.755 176.716 175.347 179.321L176.2 178.8ZM174 169.4H175C175 155.573 179.952 133.373 189.951 102.71L189 102.4L188.049 102.09C178.048 132.761 173 155.227 173 169.4H174ZM189 102.4L189.371 101.472L188.371 101.072L188 102L187.629 102.928L188.629 103.328L189 102.4ZM188 102L187.103 101.559C171.5 133.296 160.19 154.649 153.157 165.662L154 166.2L154.843 166.738C161.944 155.618 173.3 134.17 188.897 102.441L188 102ZM154 166.2L153.16 165.657C146.112 176.561 139.507 181.6 133.4 181.6V182.6V183.6C140.627 183.6 147.754 177.705 154.84 166.743L154 166.2ZM133.4 182.6V181.6C129.863 181.6 127.098 180.162 125.016 177.222L124.2 177.8L123.384 178.378C125.835 181.838 129.204 183.6 133.4 183.6V182.6ZM124.2 177.8L125.042 177.261C123.052 174.151 122 169.701 122 163.8H121H120C120 169.899 121.081 174.782 123.358 178.339L124.2 177.8ZM121 163.8H122C122 155.541 123.704 147.27 127.124 138.981L126.2 138.6L125.276 138.219C121.763 146.73 120 155.259 120 163.8H121ZM126.2 138.6L127.119 138.994C130.673 130.701 135.542 123.267 141.729 116.685L141 116L140.271 115.315C133.925 122.067 128.927 129.699 125.281 138.206L126.2 138.6ZM141 116L141.735 116.678C147.893 109.996 155.77 104.606 165.391 100.52L165 99.6L164.609 98.6796C154.764 102.86 146.64 108.404 140.265 115.322L141 116ZM165 99.6L165.391 100.52C174.988 96.445 185.383 94.4681 196.588 94.5999L196.6 93.6L196.612 92.6001C185.15 92.4652 174.479 94.4884 164.609 98.6796L165 99.6ZM196.6 93.6L195.643 93.3088C192.833 102.543 189.494 115.636 185.625 132.577L186.6 132.8L187.575 133.023C191.44 116.097 194.767 103.057 197.557 93.8912L196.6 93.6ZM186.6 132.8L185.625 132.576C181.758 149.381 179.8 161.677 179.8 169.4H180.8H181.8C181.8 161.923 183.709 149.819 187.575 133.024L186.6 132.8ZM180.8 169.4H179.8C179.8 171.874 180.189 173.902 181.107 175.338C182.074 176.851 183.557 177.6 185.4 177.6V176.6V175.6C184.177 175.6 183.359 175.149 182.793 174.262C182.177 173.298 181.8 171.726 181.8 169.4H180.8ZM135.4 177.4V178.4C138.261 178.4 141.402 176.624 144.781 173.482C148.194 170.309 152.009 165.589 156.228 159.361L155.4 158.8L154.572 158.239C150.391 164.411 146.673 168.991 143.419 172.018C140.131 175.076 137.472 176.4 135.4 176.4V177.4ZM155.4 158.8L156.228 159.361C164.671 146.898 176.23 125.643 190.898 95.6392L190 95.2L189.102 94.7608C174.437 124.757 162.929 145.902 154.572 158.239L155.4 158.8ZM190 95.2L189.881 94.2071C179.744 95.4236 170.472 98.6025 162.077 103.747L162.6 104.6L163.123 105.453C171.262 100.464 180.256 97.3764 190.119 96.1929L190 95.2ZM162.6 104.6L162.088 103.741C153.721 108.734 147.014 114.688 141.991 121.613L142.8 122.2L143.609 122.787C148.452 116.112 154.945 110.333 163.112 105.459L162.6 104.6ZM142.8 122.2L141.996 121.605C137.009 128.344 133.162 135.429 130.46 142.858L131.4 143.2L132.34 143.542C134.972 136.304 138.724 129.389 143.604 122.795L142.8 122.2ZM131.4 143.2L130.457 142.868C127.892 150.157 126.6 157.136 126.6 163.8H127.6H128.6C128.6 157.397 129.841 150.643 132.343 143.532L131.4 143.2ZM127.6 163.8H126.6C126.6 168.396 127.253 172.005 128.683 174.498C130.16 177.073 132.439 178.4 135.4 178.4V177.4V176.4C133.161 176.4 131.54 175.46 130.417 173.502C129.247 171.461 128.6 168.271 128.6 163.8H127.6Z" fill="#1A1A1A" fill-opacity="0.1" mask="url(#path-1-outside-1_788_240)"/>
<rect x="237" y="68" width="148" height="148" stroke="#1A1A1A" stroke-opacity="0.1" stroke-width="2"/>
<rect x="239.414" y="142" width="101.238" height="101.238" transform="rotate(-45 239.414 142)" stroke="#1A1A1A" stroke-opacity="0.1" stroke-width="2"/>
<rect x="276" y="176" width="69" height="71" transform="rotate(-90 276 176)" stroke="#1A1A1A" stroke-opacity="0.1" stroke-width="2"/>
<path d="M319.566 217.007C364.638 217.578 401 254.293 401 299.5C401 299.667 400.998 299.833 400.997 300H399.997C399.998 299.833 400 299.667 400 299.5C400 254.489 363.511 218 318.5 218H82.5C37.4888 218 1 254.489 1 299.5C1 299.667 1.00193 299.833 1.00293 300H0.00292969C0.00194123 299.833 0 299.667 0 299.5C0 254.293 36.3616 217.578 81.4336 217.007L82.5 217H318.5L319.566 217.007Z" fill="#D9D9D9"/>
</svg>
