<svg width="102" height="60" viewBox="0 0 102 60" fill="none" xmlns="http://www.w3.org/2000/svg">
<path d="M2.124 29V5.384H17.496V8.336C15.696 6.824 13.644 6.212 12.168 5.96C12.132 5.96 12.132 5.96 12.132 5.96C11.664 5.852 11.196 5.816 10.692 5.78C10.584 5.78 10.476 5.78 10.404 5.78H4.752V9.452C4.752 10.604 4.788 12.152 4.788 14.204V16.544H10.332V16.94H4.788V29H2.124ZM19.8428 5.384H22.3988C22.3988 5.384 22.4348 22.952 22.4348 24.428C22.4348 24.5 22.4348 24.536 22.4348 24.536V24.752C22.4348 24.752 22.3268 26.084 22.2188 26.588C21.1748 31.844 16.6027 36.2 12.8947 36.2C12.7867 36.2 12.6787 36.2 12.5707 36.2V33.752C13.5427 33.932 14.8027 34.22 16.1707 34.22C18.5108 34.22 19.8788 31.88 19.8788 26.588V24.752C19.8788 21.224 19.8428 5.384 19.8428 5.384ZM37.7142 5.024C44.1222 5.024 49.7022 10.172 49.7022 17.192C49.7022 24.176 43.9422 29.324 37.5342 29.324C31.1262 29.324 25.6542 24.176 25.6542 17.192C25.6542 10.064 31.3062 5.024 37.7142 5.024ZM37.3902 29C42.9342 29 46.6782 24.176 46.6782 17.192C46.6782 10.172 43.4022 5.384 37.8582 5.384C32.2782 5.384 28.7142 10.172 28.7142 17.192C28.7142 24.176 31.8462 29 37.3902 29ZM71.5461 29H71.4381C71.4021 29.072 71.3301 29.072 71.2221 29.072C71.1501 29.072 71.0781 29.072 71.0061 29C70.8261 28.892 70.5741 28.604 70.3581 28.352L53.9421 7.832L53.7621 7.652V28.964H53.3661V7.184C53.3301 7.112 53.2941 7.076 53.2581 7.04C52.7541 6.572 52.0341 6.032 51.0981 5.78V5.384C51.2781 5.384 51.4581 5.384 51.6381 5.384H55.4901C55.5261 5.384 55.5261 5.42 55.5621 5.456C55.7781 5.888 56.3541 6.608 56.8941 7.256L69.2061 22.556L69.3861 22.808L71.1501 25.004V5.384H71.5461V29ZM96.9418 17.804C97.0498 17.804 97.1578 17.912 97.1578 18.092C97.1218 21.332 97.1218 25.004 97.1218 29.036C97.1218 29.252 97.0138 29.216 96.8698 29.072C96.4738 28.784 95.8618 28.424 95.3578 28.208C93.4858 28.856 90.7498 29.324 87.6898 29.324C80.3818 29.324 74.8018 24.176 74.8018 17.192C74.8018 10.064 80.8138 5.024 87.8338 5.024C90.6778 5.024 94.4578 5.708 96.2938 6.536L96.5098 10.46C96.4018 10.28 95.5738 8.984 94.0978 7.724C94.0618 7.724 94.0618 7.724 94.0618 7.724C93.9898 7.652 93.8818 7.544 93.7738 7.472C92.5138 6.5 90.8218 5.6 88.7698 5.42C88.7698 5.42 88.7698 5.42 88.7338 5.42H88.6978C88.5898 5.384 88.4458 5.384 88.3378 5.384C88.1938 5.384 88.0498 5.384 87.9058 5.384C87.6898 5.384 87.5098 5.384 87.3298 5.384C87.1498 5.384 86.9698 5.42 86.7898 5.42C81.8578 5.924 78.5458 9.74 77.9338 15.32C77.9338 15.5 77.8978 15.716 77.8978 15.896C77.8618 16.328 77.8618 16.76 77.8618 17.192C77.8618 19.388 78.1858 21.332 78.8698 23.024C79.0858 23.528 79.3018 23.996 79.5538 24.464C79.6258 24.608 79.7338 24.752 79.8058 24.896C80.0938 25.328 80.4178 25.724 80.7418 26.084C80.8498 26.228 80.9578 26.336 81.0658 26.444C82.7218 28.064 84.9178 28.964 87.6178 28.964C87.7618 28.964 87.9058 28.964 88.0498 28.964C88.3018 28.964 88.5178 28.964 88.7698 28.928C89.0578 28.892 89.3098 28.892 89.5978 28.856C89.3098 28.892 89.0578 28.892 88.7698 28.928C89.0578 28.892 89.3458 28.856 89.6338 28.82C89.7418 28.784 89.8858 28.748 89.9938 28.748C90.0298 28.712 90.0658 28.712 90.1018 28.712C90.9658 28.496 91.7218 28.208 92.4058 27.812C92.4418 27.776 92.4418 27.776 92.4418 27.776C93.2698 27.308 93.9898 26.768 94.5658 26.228C94.5658 25.616 94.5658 24.572 94.5658 22.664C94.5658 21.188 94.5298 18.956 94.5298 18.128H85.6738V17.804H94.4938H96.9418ZM93.1978 27.74C93.0178 27.812 92.8738 27.884 92.7298 27.956C92.8738 27.884 93.0178 27.812 93.1978 27.74ZM91.8298 28.316C91.6498 28.352 91.4338 28.424 91.2178 28.496C91.4338 28.424 91.6498 28.388 91.8298 28.316Z" fill="#1A1A1A"/>
<path d="M5.22 47.538C6.984 48.294 8.784 49.05 8.784 50.886C8.784 52.848 7.11 54.162 5.058 54.162C3.222 54.162 2.304 53.982 1.098 53.658C0.936 53.622 0.936 53.586 0.936 53.478C0.936 53.028 0.918 51.948 0.918 50.94C1.278 51.984 1.818 52.668 2.376 53.118C2.52 53.244 2.682 53.352 2.826 53.442C2.88 53.478 2.934 53.496 2.988 53.532C3.024 53.55 3.06 53.568 3.096 53.586C3.132 53.604 3.168 53.622 3.204 53.64C3.402 53.73 3.582 53.784 3.762 53.838C4.14 53.946 4.572 53.982 5.058 53.982C6.948 53.982 7.758 53.046 7.758 51.696C7.758 50.022 6.048 49.338 4.32 48.618C2.502 47.862 0.648 47.07 0.648 45.252C0.648 43.236 2.466 42.012 4.626 42.012C6.318 42.012 7.362 42.246 8.334 42.462C8.388 42.48 8.424 42.48 8.442 42.498V44.802C8.208 44.118 7.848 43.614 7.452 43.254C6.48 42.372 5.256 42.228 4.806 42.192C4.77 42.192 4.734 42.192 4.716 42.192C4.662 42.192 4.626 42.192 4.626 42.192C2.538 42.192 1.71 43.164 1.71 44.46C1.71 46.08 3.456 46.8 5.22 47.538ZM18.4399 42.192H22.6339V42.354H18.4399V54H17.1439V42.354H12.9679V42.192H17.1439H18.4399ZM35.292 49.842V42.174H35.526V49.842C35.526 52.11 33.942 54.162 31.206 54.162C28.722 54.162 27.138 52.488 27.138 49.698V42.174H28.416V47.916L28.398 49.248C28.398 52.002 29.82 53.622 32.052 53.622C33.87 53.622 35.292 51.948 35.292 49.842ZM44.8372 42.192C48.3472 42.192 51.3532 44.532 51.3532 48.096C51.3532 51.588 48.5812 53.982 44.9092 53.982C44.8552 53.982 44.7652 53.982 44.6752 53.982L41.1472 53.946V42.21H43.1812C43.8292 42.21 44.5672 42.192 44.8372 42.192ZM44.9452 53.82C48.0232 53.82 49.8412 51.588 49.8412 48.096C49.8412 44.586 47.8612 42.336 44.8192 42.336H42.4972V53.748C43.0192 53.766 44.2432 53.82 44.9452 53.82ZM57.8377 54H56.5597V42.192H57.8377V54ZM69.0954 42.012C72.2994 42.012 75.0894 44.586 75.0894 48.096C75.0894 51.588 72.2094 54.162 69.0054 54.162C65.8014 54.162 63.0654 51.588 63.0654 48.096C63.0654 44.532 65.8914 42.012 69.0954 42.012ZM68.9334 54C71.7054 54 73.5774 51.588 73.5774 48.096C73.5774 44.586 71.9394 42.192 69.1674 42.192C66.3774 42.192 64.5954 44.586 64.5954 48.096C64.5954 51.588 66.1614 54 68.9334 54Z" fill="#1A1A1A"/>
</svg>
