<svg width="83" height="46" viewBox="0 0 83 46" fill="none" xmlns="http://www.w3.org/2000/svg">
<path d="M1.77 24V4.32H14.58V6.78C13.08 5.52 11.37 5.01 10.14 4.8C10.11 4.8 10.11 4.8 10.11 4.8C9.72 4.71 9.33 4.68 8.91 4.65C8.82 4.65 8.73 4.65 8.67 4.65H3.96V7.71C3.96 8.67 3.99 9.96 3.99 11.67V13.62H8.61V13.95H3.99V24H1.77ZM16.5356 4.32H18.6656C18.6656 4.32 18.6956 18.96 18.6956 20.19C18.6956 20.25 18.6956 20.28 18.6956 20.28V20.46C18.6956 20.46 18.6056 21.57 18.5156 21.99C17.6456 26.37 13.8356 30 10.7456 30C10.6556 30 10.5656 30 10.4756 30V27.96C11.2856 28.11 12.3356 28.35 13.4756 28.35C15.4256 28.35 16.5656 26.4 16.5656 21.99V20.46C16.5656 17.52 16.5356 4.32 16.5356 4.32ZM31.4285 4.02C36.7685 4.02 41.4185 8.31 41.4185 14.16C41.4185 19.98 36.6185 24.27 31.2785 24.27C25.9385 24.27 21.3785 19.98 21.3785 14.16C21.3785 8.22 26.0885 4.02 31.4285 4.02ZM31.1585 24C35.7785 24 38.8985 19.98 38.8985 14.16C38.8985 8.31 36.1685 4.32 31.5485 4.32C26.8985 4.32 23.9285 8.31 23.9285 14.16C23.9285 19.98 26.5385 24 31.1585 24ZM59.6217 24H59.5317C59.5017 24.06 59.4417 24.06 59.3517 24.06C59.2917 24.06 59.2317 24.06 59.1717 24C59.0217 23.91 58.8117 23.67 58.6317 23.46L44.9517 6.36L44.8017 6.21V23.97H44.4717V5.82C44.4417 5.76 44.4117 5.73 44.3817 5.7C43.9617 5.31 43.3617 4.86 42.5817 4.65V4.32C42.7317 4.32 42.8817 4.32 43.0317 4.32H46.2417C46.2717 4.32 46.2717 4.35 46.3017 4.38C46.4817 4.74 46.9617 5.34 47.4117 5.88L57.6717 18.63L57.8217 18.84L59.2917 20.67V4.32H59.6217V24ZM80.7848 14.67C80.8748 14.67 80.9648 14.76 80.9648 14.91C80.9348 17.61 80.9348 20.67 80.9348 24.03C80.9348 24.21 80.8448 24.18 80.7248 24.06C80.3948 23.82 79.8848 23.52 79.4648 23.34C77.9048 23.88 75.6248 24.27 73.0748 24.27C66.9848 24.27 62.3348 19.98 62.3348 14.16C62.3348 8.22 67.3448 4.02 73.1948 4.02C75.5648 4.02 78.7148 4.59 80.2448 5.28L80.4248 8.55C80.3348 8.4 79.6448 7.32 78.4148 6.27C78.3848 6.27 78.3848 6.27 78.3848 6.27C78.3248 6.21 78.2348 6.12 78.1448 6.06C77.0948 5.25 75.6848 4.5 73.9748 4.35C73.9748 4.35 73.9748 4.35 73.9448 4.35H73.9148C73.8248 4.32 73.7048 4.32 73.6148 4.32C73.4948 4.32 73.3748 4.32 73.2548 4.32C73.0748 4.32 72.9248 4.32 72.7748 4.32C72.6248 4.32 72.4748 4.35 72.3248 4.35C68.2148 4.77 65.4548 7.95 64.9448 12.6C64.9448 12.75 64.9148 12.93 64.9148 13.08C64.8848 13.44 64.8848 13.8 64.8848 14.16C64.8848 15.99 65.1548 17.61 65.7248 19.02C65.9048 19.44 66.0848 19.83 66.2948 20.22C66.3548 20.34 66.4448 20.46 66.5048 20.58C66.7448 20.94 67.0148 21.27 67.2848 21.57C67.3748 21.69 67.4648 21.78 67.5548 21.87C68.9348 23.22 70.7648 23.97 73.0148 23.97C73.1348 23.97 73.2548 23.97 73.3748 23.97C73.5848 23.97 73.7648 23.97 73.9748 23.94C74.2148 23.91 74.4248 23.91 74.6648 23.88C74.4248 23.91 74.2148 23.91 73.9748 23.94C74.2148 23.91 74.4548 23.88 74.6948 23.85C74.7848 23.82 74.9048 23.79 74.9948 23.79C75.0248 23.76 75.0548 23.76 75.0848 23.76C75.8048 23.58 76.4348 23.34 77.0048 23.01C77.0348 22.98 77.0348 22.98 77.0348 22.98C77.7248 22.59 78.3248 22.14 78.8048 21.69C78.8048 21.18 78.8048 20.31 78.8048 18.72C78.8048 17.49 78.7748 15.63 78.7748 14.94H71.3948V14.67H78.7448H80.7848ZM77.6648 22.95C77.5148 23.01 77.3948 23.07 77.2748 23.13C77.3948 23.07 77.5148 23.01 77.6648 22.95ZM76.5248 23.43C76.3748 23.46 76.1948 23.52 76.0148 23.58C76.1948 23.52 76.3748 23.49 76.5248 23.43Z" fill="#FAFAFA"/>
<path d="M3.48 37.692C4.656 38.196 5.856 38.7 5.856 39.924C5.856 41.232 4.74 42.108 3.372 42.108C2.148 42.108 1.536 41.988 0.732 41.772C0.624 41.748 0.624 41.724 0.624 41.652C0.624 41.352 0.612 40.632 0.612 39.96C0.852 40.656 1.212 41.112 1.584 41.412C1.68 41.496 1.788 41.568 1.884 41.628C1.92 41.652 1.956 41.664 1.992 41.688C2.016 41.7 2.04 41.712 2.064 41.724C2.088 41.736 2.112 41.748 2.136 41.76C2.268 41.82 2.388 41.856 2.508 41.892C2.76 41.964 3.048 41.988 3.372 41.988C4.632 41.988 5.172 41.364 5.172 40.464C5.172 39.348 4.032 38.892 2.88 38.412C1.668 37.908 0.432 37.38 0.432 36.168C0.432 34.824 1.644 34.008 3.084 34.008C4.212 34.008 4.908 34.164 5.556 34.308C5.592 34.32 5.616 34.32 5.628 34.332V35.868C5.472 35.412 5.232 35.076 4.968 34.836C4.32 34.248 3.504 34.152 3.204 34.128C3.18 34.128 3.156 34.128 3.144 34.128C3.108 34.128 3.084 34.128 3.084 34.128C1.692 34.128 1.14 34.776 1.14 35.64C1.14 36.72 2.304 37.2 3.48 37.692ZM9.89325 34.128H12.6893V34.236H9.89325V42H9.02925V34.236H6.24525V34.128H9.02925H9.89325ZM18.728 39.228V34.116H18.884V39.228C18.884 40.74 17.828 42.108 16.004 42.108C14.348 42.108 13.292 40.992 13.292 39.132V34.116H14.144V37.944L14.132 38.832C14.132 40.668 15.08 41.748 16.568 41.748C17.78 41.748 18.728 40.632 18.728 39.228ZM22.6914 34.128C25.0314 34.128 27.0354 35.688 27.0354 38.064C27.0354 40.392 25.1874 41.988 22.7394 41.988C22.7034 41.988 22.6434 41.988 22.5834 41.988L20.2314 41.964V34.14H21.5874C22.0194 34.14 22.5114 34.128 22.6914 34.128ZM22.7634 41.88C24.8154 41.88 26.0274 40.392 26.0274 38.064C26.0274 35.724 24.7074 34.224 22.6794 34.224H21.1314V41.832C21.4794 41.844 22.2954 41.88 22.7634 41.88ZM28.9584 42H28.1064V34.128H28.9584V42ZM34.0636 34.008C36.1996 34.008 38.0596 35.724 38.0596 38.064C38.0596 40.392 36.1396 42.108 34.0036 42.108C31.8676 42.108 30.0436 40.392 30.0436 38.064C30.0436 35.688 31.9276 34.008 34.0636 34.008ZM33.9556 42C35.8036 42 37.0516 40.392 37.0516 38.064C37.0516 35.724 35.9596 34.128 34.1116 34.128C32.2516 34.128 31.0636 35.724 31.0636 38.064C31.0636 40.392 32.1076 42 33.9556 42Z" fill="#FAFAFA"/>
</svg>
