<svg width="43" height="43" viewBox="0 0 43 43" fill="none" xmlns="http://www.w3.org/2000/svg">
<g filter="url(#filter0_d_627_287)">
<rect x="4" width="35" height="35" rx="17.5" fill="#333333"/>
<path fill-rule="evenodd" clip-rule="evenodd" d="M25.2804 15.121C26.4526 15.955 27.8564 16.4007 29.2947 16.3953V13.5423C29.0119 13.5431 28.7299 13.5128 28.4538 13.452V15.7248C27.0123 15.7274 25.6065 15.2766 24.4348 14.4363V20.3038C24.4312 21.2666 24.1674 22.2105 23.6714 23.0354C23.1753 23.8603 22.4654 24.5354 21.617 24.9892C20.7686 25.4431 19.8133 25.6586 18.8525 25.6131C17.8916 25.5675 16.9609 25.2626 16.1592 24.7305C16.9008 25.4815 17.8483 25.9954 18.8819 26.207C19.9155 26.4186 20.9885 26.3185 21.9652 25.9194C22.9419 25.5202 23.7783 24.8399 24.3684 23.9647C24.9586 23.0894 25.276 22.0586 25.2804 21.0027V15.121ZM26.3208 12.211C25.7247 11.5643 25.3589 10.7385 25.2804 9.86209V9.49121H24.4823C24.5809 10.0483 24.7956 10.5783 25.1124 11.0469C25.4291 11.5155 25.8408 11.9121 26.3208 12.211ZM18.0072 22.472C17.7306 22.1099 17.561 21.6774 17.5179 21.2237C17.4748 20.7699 17.5598 20.3132 17.7632 19.9054C17.9667 19.4977 18.2804 19.1553 18.6687 18.9172C19.057 18.6791 19.5043 18.5549 19.9597 18.5587C20.2111 18.5586 20.461 18.5971 20.7008 18.6728V15.7248C20.4205 15.6877 20.1378 15.6718 19.8552 15.6773V17.9691C19.2714 17.7844 18.6395 17.8264 18.0852 18.0868C17.531 18.3471 17.0949 18.8067 16.8638 19.3742C16.6327 19.9417 16.6235 20.5755 16.838 21.1494C17.0525 21.7234 17.475 22.1956 18.0214 22.472H18.0072Z" fill="#EE1D52"/>
<path fill-rule="evenodd" clip-rule="evenodd" d="M24.4341 14.4172C25.6058 15.2576 27.0117 15.7084 28.4531 15.7058V13.433C27.6318 13.2592 26.8858 12.8318 26.3201 12.211C25.8402 11.9121 25.4284 11.5155 25.1117 11.0469C24.7949 10.5783 24.5803 10.0483 24.4816 9.49121H22.3818V21.0027C22.3799 21.5122 22.2185 22.0084 21.9205 22.4215C21.6224 22.8345 21.2026 23.1438 20.72 23.3059C20.2373 23.468 19.7161 23.4747 19.2294 23.3251C18.7427 23.1756 18.3151 22.8772 18.0065 22.472C17.5174 22.225 17.1258 21.8203 16.8947 21.3232C16.6636 20.8261 16.6066 20.2655 16.7329 19.732C16.8591 19.1985 17.1613 18.7231 17.5906 18.3826C18.0199 18.042 18.5513 17.8562 19.0991 17.855C19.3505 17.8558 19.6003 17.8943 19.8402 17.9691V15.6773C18.8035 15.7022 17.7965 16.0295 16.943 16.6192C16.0895 17.2088 15.4265 18.035 15.0355 18.9964C14.6446 19.9578 14.5425 21.0126 14.742 22.0312C14.9415 23.0498 15.4338 23.988 16.1585 24.7305C16.9604 25.2664 17.8925 25.5745 18.8556 25.622C19.8186 25.6696 20.7765 25.4548 21.6272 25.0005C22.4779 24.5462 23.1895 23.8695 23.6864 23.0424C24.1832 22.2153 24.4465 21.2688 24.4484 20.3037L24.4341 14.4172Z" fill="white"/>
<path fill-rule="evenodd" clip-rule="evenodd" d="M28.4536 13.4326V12.8192C27.6993 12.8224 26.9597 12.6114 26.3205 12.2106C26.8848 12.8332 27.6315 13.2609 28.4536 13.4326ZM24.482 9.49083C24.482 9.38147 24.4488 9.26735 24.4345 9.15799V8.78711H21.5366V20.3034C21.5341 20.9482 21.2761 21.5657 20.8192 22.0203C20.3623 22.475 19.7438 22.7296 19.0996 22.7283C18.7202 22.7302 18.3458 22.6423 18.0069 22.4716C18.3155 22.8768 18.7432 23.1752 19.2298 23.3248C19.7165 23.4743 20.2377 23.4676 20.7204 23.3055C21.203 23.1434 21.6228 22.8342 21.9209 22.4211C22.219 22.008 22.3803 21.5119 22.3822 21.0023V9.49083H24.482ZM19.8407 15.6721V15.0207C18.6482 14.8586 17.436 15.1055 16.4017 15.7211C15.3674 16.3368 14.5719 17.285 14.1449 18.4111C13.7179 19.5372 13.6845 20.7748 14.0502 21.9224C14.416 23.0699 15.1593 24.0596 16.1589 24.7301C15.4397 23.9859 14.9527 23.0481 14.7573 22.0313C14.5618 21.0146 14.6665 19.9629 15.0585 19.0047C15.4505 18.0465 16.1129 17.2233 16.9647 16.6357C17.8164 16.0481 18.8207 15.7216 19.8549 15.6959L19.8407 15.6721Z" fill="#69C9D0"/>
</g>
<defs>
<filter id="filter0_d_627_287" x="0" y="0" width="43" height="43" filterUnits="userSpaceOnUse" color-interpolation-filters="sRGB">
<feFlood flood-opacity="0" result="BackgroundImageFix"/>
<feColorMatrix in="SourceAlpha" type="matrix" values="0 0 0 0 0 0 0 0 0 0 0 0 0 0 0 0 0 0 127 0" result="hardAlpha"/>
<feOffset dy="4"/>
<feGaussianBlur stdDeviation="2"/>
<feComposite in2="hardAlpha" operator="out"/>
<feColorMatrix type="matrix" values="0 0 0 0 0.101961 0 0 0 0 0.101961 0 0 0 0 0.101961 0 0 0 0.1 0"/>
<feBlend mode="normal" in2="BackgroundImageFix" result="effect1_dropShadow_627_287"/>
<feBlend mode="normal" in="SourceGraphic" in2="effect1_dropShadow_627_287" result="shape"/>
</filter>
</defs>
</svg>
